<svg xmlns="http://www.w3.org/2000/svg" viewBox="0 0 64 64">
  <path d="M18.9 28.2c0 .7.1 1.3.2 1.7.2.5.4.9.7 1.5.1.2.2.4.2.5 0 .2-.1.4-.4.7l-1.3.9c-.2.1-.3.2-.5.2-.2 0-.4-.1-.6-.3-.3-.3-.5-.6-.7-.9-.2-.3-.4-.7-.6-1.1-1.5 1.8-3.4 2.6-5.7 2.6-1.6 0-2.9-.5-3.9-1.4-1-.9-1.5-2.2-1.5-3.7 0-1.6.6-3 1.8-3.9 1.2-1 2.8-1.5 4.8-1.5.7 0 1.4.1 2.1.2.7.1 1.5.3 2.3.5v-1.4c0-1.5-.3-2.5-.9-3.1-.6-.6-1.7-.9-3.2-.9-.7 0-1.4.1-2.1.3-.7.2-1.5.4-2.1.8-.3.2-.6.3-.7.3-.2 0-.3-.1-.5-.3l-.7-1c-.2-.3-.3-.5-.3-.6 0-.2.1-.4.4-.6.7-.4 1.6-.8 2.5-1 .9-.3 1.9-.4 3-.4 2.3 0 3.9.5 5 1.6 1.1 1.1 1.6 2.7 1.6 4.8v6.3h.1zm-7.8 2.9c.7 0 1.4-.1 2.1-.4.7-.3 1.4-.7 1.9-1.4.3-.4.5-.8.6-1.3.1-.5.2-1.1.2-1.8v-.9c-.6-.2-1.2-.3-1.8-.4-.6-.1-1.2-.1-1.8-.1-1.3 0-2.3.3-2.9.8-.6.5-1 1.3-1 2.3 0 .9.2 1.6.8 2.1.4.7 1.1 1.1 1.9 1.1zm15.5 2c-.3 0-.5-.1-.6-.2-.2-.1-.3-.4-.4-.8l-4.5-14.8c-.1-.4-.2-.7-.2-.8 0-.3.2-.5.5-.5h2c.3 0 .5.1.6.2.2.1.3.4.4.8l3.2 12.6 3-12.6c.1-.5.2-.7.4-.8.2-.1.4-.2.7-.2h1.6c.3 0 .5.1.7.2.2.1.3.4.4.8l3 12.8 3.3-12.8c.1-.5.2-.7.4-.8.2-.1.4-.2.6-.2h1.9c.3 0 .5.2.5.5 0 .1 0 .2 0 .3 0 .1-.1.3-.2.6l-4.6 14.8c-.1.5-.2.7-.4.8-.2.1-.4.2-.6.2h-1.7c-.3 0-.5-.1-.7-.2-.2-.2-.3-.4-.4-.8L30 19l-2.9 12.4c-.1.5-.2.7-.4.8-.2.2-.4.2-.7.2h-1.7l.3-.3zm24.3.6c-1 0-2.1-.1-3-.4-.9-.3-1.7-.6-2.2-1-.3-.2-.5-.4-.5-.7 0-.2.1-.4.3-.6l.8-.9c.2-.2.3-.3.5-.3.2 0 .4.1.6.2.8.4 1.6.7 2.4.9.8.2 1.5.3 2.4.3 1.3 0 2.2-.2 2.9-.7.7-.5 1-1.1 1-1.9 0-.6-.2-1-.5-1.4-.4-.4-1-.7-2-1l-2.8-.9c-1.4-.5-2.5-1.1-3.1-2-.6-.8-1-1.8-1-2.9 0-.8.2-1.6.6-2.3.4-.7.9-1.3 1.5-1.7.6-.5 1.4-.8 2.2-1.1.8-.2 1.7-.4 2.7-.4.5 0 1 0 1.5.1.5.1 1 .2 1.5.3.5.1.9.3 1.3.4.4.2.7.3.9.5.3.2.5.3.6.5.1.2.2.4.2.7 0 .2-.1.4-.3.7l-.7.8c-.2.2-.3.3-.5.3-.1 0-.3-.1-.6-.2-1.1-.6-2.4-.8-3.8-.8-1.1 0-2 .2-2.6.7-.6.5-.9 1.1-.9 2 0 .6.2 1.1.6 1.5.4.4 1.1.8 2.2 1.1l2.7.9c1.4.5 2.4 1.1 3 1.9.6.8.9 1.7.9 2.8 0 .9-.2 1.6-.5 2.3-.4.7-.9 1.3-1.5 1.8-.7.5-1.4.9-2.3 1.1-1 .4-2 .5-3.1.5z" fill="#252F3E"/>
  <path d="M49.5 42.1c-5.8 4.3-14.2 6.5-21.5 6.5-10.2 0-19.3-3.7-26.2-10-.5-.5-.1-1.2.6-.8 7.5 4.3 16.7 7 26.3 7 6.4 0 13.5-1.3 20-4.1 1-.5 1.8.6.8 1.4z" fill="#FF9900"/>
  <path d="M51.8 39.5c-.7-.9-5-1.1-6.8-.5-.6.1-.5.5.1.5 2.1-.3 6.8-.9 7.7.2.9 1.2-1 6-1.9 8.5-.2.6.3.4.8 0C53.5 46.3 55.3 43.7 51.8 39.5z" fill="#FF9900"/>
</svg>
