<?xml version="1.0" encoding="UTF-8"?>
<svg version="1.1" xmlns="http://www.w3.org/2000/svg" width="794" height="794">
<path d="M0 0 C0.66 0 1.32 0 2 0 C2.3810791 0.66193359 2.7621582 1.32386719 3.15478516 2.00585938 C10.0740445 14.02101781 17.00389778 26.02936064 24 38 C30.74714773 49.54721514 37.43339376 61.12902129 44.10888672 72.71777344 C47.23680148 78.14659942 50.36858448 83.57319281 53.5 89 C54.75001879 91.16665583 56.00001878 93.3333225 57.25 95.5 C57.86875 96.5725 58.4875 97.645 59.125 98.75 C64.75 108.5 64.75 108.5 66.62524414 111.75048828 C67.87435518 113.91557071 69.12354129 116.08060982 70.37280273 118.24560547 C73.51202309 123.68615706 76.64990563 129.12747216 79.78515625 134.5703125 C85.80747329 145.02206199 91.84669337 155.46299548 97.9375 165.875 C103.35921178 175.14499777 108.70204915 184.45831752 114.01922607 193.78845215 C119.22045129 202.9128284 124.48027878 212.00132774 129.78344727 221.06689453 C135.93766742 231.59084625 142.02369996 242.15380137 148.10888672 252.71777344 C150.6131413 257.0641714 153.11993352 261.40910273 155.62695312 265.75390625 C157.50290515 269.00503479 159.37840529 272.25642374 161.25390625 275.5078125 C163.73930902 279.81601651 166.22641977 284.12322789 168.71484375 288.4296875 C175.53502637 300.23629484 182.3232326 312.06027 189.07736206 323.90472412 C194.23335445 332.94329428 199.45320673 341.94277138 204.71118164 350.92236328 C209.53872836 359.17923642 214.28548671 367.48094031 219.02050781 375.79101562 C223.63502852 383.88744218 228.29103794 391.95801457 233 400 C238.0318979 408.5951729 243.00389124 417.22312222 247.9375 425.875 C254.96603507 438.20025196 262.04240434 450.49722067 269.14111328 462.78222656 C271.63722164 467.10304455 274.1307209 471.42536522 276.62402344 475.74780273 C277.87059962 477.90887006 279.11734331 480.06984076 280.36425781 482.23071289 C283.55369112 487.75797912 286.74125949 493.28630861 289.92578125 498.81640625 C291.22131657 501.06512583 292.51688896 503.31382405 293.8125 505.5625 C294.74364624 507.17995117 294.74364624 507.17995117 295.69360352 508.83007812 C298.4911637 513.68241733 301.30120151 518.52569306 304.1640625 523.33984375 C304.63739014 524.13640381 305.11071777 524.93296387 305.59838867 525.75366211 C306.4642552 527.2061394 307.33395536 528.65634118 308.20825195 530.10375977 C311 534.78197057 311 534.78197057 311 537 C121.25 537 -68.5 537 -264 537 C-264 536.67 -264 536.34 -264 536 C-262.5632374 535.7471524 -262.5632374 535.7471524 -261.0974493 535.48919678 C-233.50534315 530.63335435 -205.91357933 525.77556894 -178.32200968 520.91667897 C-171.09012473 519.64315622 -163.85820817 518.36981309 -156.62626737 517.09660751 C-84.63058399 504.42386768 -84.63058399 504.42386768 -12.65421176 491.64203405 C-10.19500328 491.20334452 -7.7357671 490.76481069 -5.27652168 490.32632828 C8.82140954 487.81260272 22.91909061 485.29752562 37.01422369 482.76815099 C42.927392 481.70718664 48.84125733 480.65016275 54.75537872 479.59452248 C57.12456807 479.17077303 59.49347968 478.74546721 61.86208344 478.31845665 C65.03148456 477.74710263 68.201764 477.18090218 71.37231445 476.6159668 C72.28725457 476.44959213 73.20219469 476.28321747 74.14486027 476.11180115 C78.14171397 475.40477236 81.92139699 474.78299688 86 475 C79.43497946 466.9112463 72.74631335 458.93738661 66 451 C60.80780978 444.89111965 55.61876419 438.78489359 50.5625 432.5625 C46.60491812 427.69870975 42.53457554 422.94118769 38.44165039 418.19165039 C34.66665609 413.8019965 30.99271539 409.33885229 27.34375 404.84375 C24.60697951 401.52313514 21.8089705 398.25953218 19 395 C14.70027287 390.01059233 10.49514591 384.95778844 6.34375 379.84375 C3.60697951 376.52313514 0.8089705 373.25953218 -2 370 C-6.29972713 365.01059233 -10.50485409 359.95778844 -14.65625 354.84375 C-17.39302138 351.52313406 -20.19106385 348.25956291 -23 345 C-27.32172863 339.98408311 -31.55479196 334.90824701 -35.73046875 329.76953125 C-40.08505794 324.45558334 -44.55078435 319.23473234 -49 314 C-54.9600827 306.98765442 -60.87758795 299.95039195 -66.6875 292.8125 C-69.26146418 289.68200302 -71.87570424 286.58828722 -74.5 283.5 C-78.7463334 278.50252886 -82.95092918 273.47627115 -87.0390625 268.34765625 C-88.88181107 266.03685083 -88.88181107 266.03685083 -90.7734375 264.37109375 C-92.25 263 -92.25 263 -94 260 C-93.6565094 257.69972229 -93.6565094 257.69972229 -92.86157227 255.02172852 C-92.56993195 254.03898956 -92.27829163 253.05625061 -91.97781372 252.04373169 C-90.4222886 247.20170399 -88.72720756 242.42259254 -86.96484375 237.65234375 C-86.57442902 236.58397278 -86.18401428 235.51560181 -85.7817688 234.41485596 C-84.94223286 232.11882875 -84.10070401 229.82352943 -83.25735474 227.52890015 C-81.21583548 221.97380961 -79.18653891 216.41425472 -77.15592003 210.85517311 C-76.458423 208.94624326 -75.76037192 207.03751675 -75.06221008 205.12882996 C-71.05416644 194.16818187 -67.09226713 183.19126274 -63.14733887 172.20776367 C-61.30572274 167.0805817 -59.46143795 161.95435988 -57.6171875 156.828125 C-57.24476929 155.79292725 -56.87235107 154.75772949 -56.48864746 153.69116211 C-43.88698199 118.67052087 -31.20206609 83.68206339 -18.27807617 48.77905273 C-17.4624735 46.57415006 -16.6471213 44.36915472 -15.83203125 42.1640625 C-15.24306313 40.57124199 -15.24306313 40.57124199 -14.64219666 38.94624329 C-12.4605801 33.026606 -10.31267204 27.09612373 -8.20068359 21.15136719 C-7.96944007 20.50087843 -7.73819654 19.85038967 -7.49994564 19.18018913 C-6.37664992 16.01785776 -5.25772011 12.85410845 -4.14399719 9.68838501 C-3.74673935 8.56580292 -3.34948151 7.44322083 -2.94018555 6.28662109 C-2.58893112 5.2882724 -2.2376767 4.28992371 -1.8757782 3.26132202 C-1 1 -1 1 0 0 Z " fill="#0089D6" transform="translate(435,41)"/>
<path d="M0 0 C-2.40378545 8.22690911 -6.05215395 15.75684748 -9.74765015 23.46185303 C-11.28817739 26.67401977 -12.81722233 29.89160776 -14.34690857 33.10894775 C-15.12349817 34.74214914 -15.9006488 36.37508387 -16.67835999 38.00775146 C-20.05969141 45.10957727 -23.38501083 52.23612956 -26.6875 59.375 C-27.74080094 61.6497787 -28.79418624 63.92451834 -29.84765625 66.19921875 C-30.36602051 67.3186084 -30.88438477 68.43799805 -31.41845703 69.59130859 C-33.85853338 74.85039256 -36.31366536 80.10242206 -38.7684021 85.35467529 C-43.04329868 94.50148277 -47.30653014 103.65352062 -51.546875 112.81640625 C-52.13603195 114.08945869 -52.13603195 114.08945869 -52.73709106 115.38822937 C-54.35762206 118.89014279 -55.97808151 122.39208929 -57.59832764 125.89413452 C-63.42616137 138.48728515 -69.31168398 151.05170859 -75.24124146 163.597229 C-80.02763675 173.73091488 -84.70263686 183.9099309 -89.3125 194.125 C-95.72062205 208.32415777 -102.37454449 222.39956303 -109.07983398 236.46044922 C-115.29827922 249.50203166 -121.41850965 262.58492785 -127.47607422 275.70214844 C-130.12277059 281.42973168 -132.78032082 287.15227432 -135.4375 292.875 C-135.97238037 294.02726074 -136.50726074 295.17952148 -137.05834961 296.36669922 C-141.00879493 304.87380236 -144.97018612 313.37575487 -148.9375 321.875 C-149.22959351 322.50076935 -149.52168701 323.1265387 -149.82263184 323.77127075 C-152.98947261 330.55531985 -156.15812172 337.33852179 -159.328125 344.12109375 C-160.44805678 346.51816371 -161.56784676 348.91529992 -162.6875 351.3125 C-162.9687674 351.91467346 -163.25003479 352.51684692 -163.53982544 353.13726807 C-167.22139823 361.02131108 -170.88847893 368.91195937 -174.54296875 376.80859375 C-174.93612274 377.65810608 -175.32927673 378.50761841 -175.73434448 379.38287354 C-176.54088217 381.12570793 -177.34741082 382.86854651 -178.15393066 384.61138916 C-178.55688354 385.48213074 -178.95983643 386.35287231 -179.375 387.25 C-179.77779175 388.12041931 -180.1805835 388.99083862 -180.59558105 389.88763428 C-186.49568249 402.63399071 -192.44512677 415.3560313 -198.43835449 428.05883789 C-203.1925588 438.13683687 -207.89772567 448.23581477 -212.55541992 458.35888672 C-216.42781473 466.77221553 -220.33236057 475.17017309 -224.25 483.5625 C-224.80445801 484.75069336 -225.35891602 485.93888672 -225.93017578 487.16308594 C-230.26818916 496.45093325 -234.63511866 505.72462715 -239 515 C-295.76 515 -352.52 515 -411 515 C-410.10360206 511.41440824 -409.11761713 509.15394339 -407.33203125 505.984375 C-406.77596191 504.99332764 -406.21989258 504.00228027 -405.64697266 502.98120117 C-405.04159668 501.91490479 -404.4362207 500.8486084 -403.8125 499.75 C-403.1839209 498.63536377 -402.5553418 497.52072754 -401.90771484 496.37231445 C-397.14264191 487.94879174 -392.28640128 479.57969289 -387.39160156 471.23095703 C-382.89608444 463.55869083 -378.46623912 455.85018089 -374.0625 448.125 C-368.28807471 437.99675317 -362.48108881 427.88796552 -356.64697266 417.79394531 C-352.3926282 410.42778163 -348.16650945 403.04587811 -343.953125 395.65625 C-338.12131169 385.42814665 -332.2349777 375.23409984 -326.28662109 365.07324219 C-321.83083656 357.45094222 -317.43602854 349.79468689 -313.0625 342.125 C-306.03396493 329.79974804 -298.95759566 317.50277933 -291.85888672 305.21777344 C-288.73675395 299.81329355 -285.61858796 294.40652588 -282.5 289 C-281.25001878 286.8333225 -280.00001879 284.66665583 -278.75 282.5 C-277.821875 280.89125 -277.821875 280.89125 -276.875 279.25 C-270 267.33333333 -263.125 255.41666667 -256.25 243.5 C-255.63068604 242.42645264 -255.01137207 241.35290527 -254.37329102 240.24682617 C-253.12923208 238.09059787 -251.88493058 235.93450951 -250.64038086 233.77856445 C-247.42243226 228.20334516 -244.20918263 222.62548285 -241.00390625 217.04296875 C-237.87121318 211.58810722 -234.72093331 206.14372971 -231.56103516 200.70458984 C-230.24445072 198.42352597 -228.95062953 196.13223477 -227.66796875 193.83203125 C-223.20393597 186.07679712 -217.91611763 180.64484223 -211 175 C-210.11183594 174.26394531 -209.22367188 173.52789062 -208.30859375 172.76953125 C-206.50375504 171.28520247 -204.69241425 169.80874816 -202.875 168.33984375 C-199.75975403 165.80447373 -196.68751009 163.22356266 -193.625 160.625 C-193.08262695 160.16504639 -192.54025391 159.70509277 -191.98144531 159.23120117 C-190.32034728 157.82152451 -188.66003294 156.4109307 -187 155 C-180.89111965 149.80780978 -174.78489359 144.61876419 -168.5625 139.5625 C-163.69870975 135.60491812 -158.94118769 131.53457554 -154.19165039 127.44165039 C-149.8019965 123.66665609 -145.33885229 119.99271539 -140.84375 116.34375 C-137.52313514 113.60697951 -134.25953218 110.8089705 -131 108 C-126.01059233 103.70027287 -120.95778844 99.49514591 -115.84375 95.34375 C-112.52313514 92.60697951 -109.25953218 89.8089705 -106 87 C-101.01059233 82.70027287 -95.95778844 78.49514591 -90.84375 74.34375 C-87.52313406 71.60697862 -84.25956291 68.80893615 -81 66 C-75.98408311 61.67827137 -70.90824701 57.44520804 -65.76953125 53.26953125 C-60.45558334 48.91494206 -55.23473234 44.44921565 -50 40 C-42.98765442 34.0399173 -35.95039195 28.12241205 -28.8125 22.3125 C-25.68199319 19.73852773 -22.58865131 17.1238785 -19.5 14.5 C-17.33482226 12.66490146 -15.16811527 10.83162693 -13 9 C-12.46713379 8.54963379 -11.93426758 8.09926758 -11.38525391 7.63525391 C-9.86567414 6.35543526 -8.33923162 5.08377848 -6.8125 3.8125 C-5.93207031 3.07644531 -5.05164063 2.34039062 -4.14453125 1.58203125 C-2 0 -2 0 0 0 Z " fill="#0089D6" transform="translate(411,0)"/>
<path d="M0 0 C9.24 0 18.48 0 28 0 C36.08730963 20.66993065 44.15690473 41.3462691 52.125 62.0625 C52.42979279 62.85431671 52.73458557 63.64613342 53.0486145 64.46194458 C56.06311771 72.29573148 59.05824427 80.13566056 61.9921875 88 C64.09454766 93.63164935 66.24773938 99.24160495 68.4375 104.83984375 C68.72938202 105.58625626 69.02126404 106.33266876 69.32199097 107.10169983 C70.51126253 110.14040727 71.70169695 113.17864892 72.89550781 116.21557617 C76.43165057 125.21728167 79.86037973 134.2382921 83.01965332 143.38011169 C84.67560178 148.16145355 86.53961722 152.81246523 88.5234375 157.46484375 C93.75434217 169.98857055 98.6773253 182.66253305 103.06030273 195.50854492 C104.13698579 198.64890418 105.29323365 201.69811659 106.6640625 204.71875 C108 208 108 208 108 212 C98.76 212 89.52 212 80 212 C76.9065496 205.19440911 74.08611731 198.77155033 71.75 191.75 C68.73613875 182.89838707 65.40069958 174.19763605 61.93261719 165.51464844 C61.56555664 164.59200195 61.19849609 163.66935547 60.8203125 162.71875 C60.49305176 161.90341797 60.16579102 161.08808594 59.82861328 160.24804688 C59 158 59 158 58 154 C28.96 154 -0.08 154 -30 154 C-36.20268956 170.99581642 -36.20268956 170.99581642 -42.1875 188.0625 C-44.96388387 196.1130549 -47.87059159 204.07868495 -51 212 C-59.91 212 -68.82 212 -78 212 C-78 206.22670248 -77.54748076 202.74203068 -75.59375 197.59375 C-75.32953247 196.87223755 -75.06531494 196.1507251 -74.79309082 195.40734863 C-73.87848794 192.93172696 -72.94233126 190.46519764 -72 188 C-71.64905273 187.0812207 -71.29810547 186.16244141 -70.93652344 185.21582031 C-67.7440518 176.88969786 -64.491738 168.58707956 -61.24072266 160.28369141 C-56.77136663 148.85851891 -52.34309375 137.44226931 -48.36914062 125.83398438 C-47.05574844 122.0688917 -45.57007475 118.38071124 -44.07669067 114.68395996 C-42.15892505 109.90337974 -40.32528345 105.09034473 -38.48046875 100.28125 C-38.05880936 99.18389526 -37.63714996 98.08654053 -37.20271301 96.95593262 C-35.8636631 93.47086932 -34.52551278 89.9854616 -33.1875 86.5 C-31.43145899 81.9269029 -29.67488935 77.35400924 -27.91796875 72.78125 C-27.49391251 71.67704208 -27.06985626 70.57283417 -26.63294983 69.43516541 C-23.85242458 62.20029933 -21.05535582 54.97210064 -18.217453 47.75952148 C-16.4282859 43.1888332 -14.77784854 38.5808881 -13.1875 33.9375 C-9.22092618 22.45954394 -4.5514911 11.25571448 0 0 Z M13 31 C12.76667969 31.80695312 12.53335938 32.61390625 12.29296875 33.4453125 C8.44460826 46.25504953 3.74897187 58.75002706 -0.89381409 71.28695679 C-3.55114715 78.47174603 -6.12738765 85.68527129 -8.70581055 92.89868164 C-10.61208864 98.21047532 -12.55787506 103.50423208 -14.55859375 108.78125 C-15.18677002 110.43858154 -15.18677002 110.43858154 -15.82763672 112.12939453 C-16.63322216 114.24672408 -17.44323992 116.36237412 -18.25830078 118.47607422 C-18.79753174 119.89170654 -18.79753174 119.89170654 -19.34765625 121.3359375 C-19.82730835 122.58189697 -19.82730835 122.58189697 -20.31665039 123.85302734 C-21.15164655 126.10093204 -21.15164655 126.10093204 -21 129 C2.1 129 25.2 129 49 129 C44.13046721 114.39140163 38.99183766 99.89348003 33.6875 85.4375 C33.45530762 84.80440918 33.22311523 84.17131836 32.98388672 83.51904297 C30.40466011 76.49078415 27.80590302 69.47031744 25.17578125 62.4609375 C24.72565674 61.25767822 24.27553223 60.05441895 23.81176758 58.81469727 C22.9656661 56.55574961 22.11553977 54.29830344 21.26049805 52.04272461 C19.04020573 46.11125944 17.16596927 40.23400577 15.69335938 34.07104492 C15.20726208 31.80938882 15.20726208 31.80938882 13 31 Z " fill="#0088D5" transform="translate(78,575)"/>
<path d="M0 0 C9.26697496 7.73110761 13.5623533 16.71214791 18.1875 27.8125 C18.1875 43.3225 18.1875 58.8325 18.1875 74.8125 C-15.4725 74.8125 -49.1325 74.8125 -83.8125 74.8125 C-81.44689823 90.18891148 -78.832329 105.14291688 -65.984375 115.3515625 C-52.60640908 124.35041008 -37.09084554 126.06671853 -21.34472656 123.39355469 C-11.53655618 121.09202929 -1.93790732 116.9930445 6.125 110.9375 C7.135625 110.23625 8.14625 109.535 9.1875 108.8125 C10.6725 109.3075 10.6725 109.3075 12.1875 109.8125 C12.1875 117.4025 12.1875 124.9925 12.1875 132.8125 C1.49399925 138.82207067 -7.80619418 143.32843673 -19.8125 145.8125 C-20.94522339 146.07293091 -20.94522339 146.07293091 -22.10083008 146.33862305 C-27.10436118 147.21301342 -32.17009471 147.07743727 -37.23803711 147.10766602 C-39.21296605 147.12468094 -41.18760538 147.16853082 -43.16210938 147.21289062 C-61.64826095 147.33335176 -77.11350835 141.13255326 -90.31640625 128.3984375 C-95.8125 122.70451878 -95.8125 122.70451878 -95.8125 119.8125 C-96.4725 119.8125 -97.1325 119.8125 -97.8125 119.8125 C-109.57676018 96.47958491 -115.5643679 66.33261728 -107.11132812 40.68505859 C-104.07706786 32.0061283 -100.61635612 23.67335546 -95.8125 15.8125 C-95.1525 15.8125 -94.4925 15.8125 -93.8125 15.8125 C-93.56242188 15.07644531 -93.31234375 14.34039063 -93.0546875 13.58203125 C-88.64725958 3.75540737 -76.85218022 -3.47102282 -67.390625 -7.7265625 C-43.94103727 -16.63740584 -20.62379881 -14.64432936 0 0 Z M-68.8125 20.8125 C-77.03501427 30.53558485 -80.44071861 39.44930156 -83.8125 51.8125 C-57.4125 51.8125 -31.0125 51.8125 -3.8125 51.8125 C-3.67660114 46.06722685 -3.67660114 46.06722685 -4.73046875 40.91015625 C-4.93051514 40.25080078 -5.13056152 39.59144531 -5.33666992 38.91210938 C-5.55556885 38.23986328 -5.77446777 37.56761719 -6 36.875 C-6.22341064 36.17568359 -6.44682129 35.47636719 -6.67700195 34.75585938 C-8.4072439 29.56089719 -10.44597911 25.17987845 -13.8125 20.8125 C-14.4725 20.8125 -15.1325 20.8125 -15.8125 20.8125 C-16.3075 19.3275 -16.3075 19.3275 -16.8125 17.8125 C-33.06413439 5.57707411 -53.78571959 7.58031916 -68.8125 20.8125 Z " fill="#0088D6" transform="translate(721.8125,643.1875)"/>
<path d="M0 0 C8.58 0 17.16 0 26 0 C26.00410889 2.97580078 26.00821777 5.95160156 26.01245117 9.01757812 C26.02973091 18.90428963 26.07436921 28.79074565 26.13209057 38.6772995 C26.16622563 44.66528731 26.19144951 50.65302362 26.19555664 56.64111328 C26.19986857 62.4315171 26.22856979 68.22135488 26.27343178 74.01158142 C26.28631476 76.20886423 26.29074754 78.40621511 26.28615379 80.60353088 C26.26224847 95.52481197 26.23958648 112.34470651 36.8984375 124.16015625 C44.34201408 130.67674466 51.49950406 132.52396229 61.1875 132.625 C62.01854248 132.6360376 62.84958496 132.6470752 63.70581055 132.65844727 C69.19088333 132.53172223 73.28651618 131.32610952 78.1809082 128.85302734 C80 128 80 128 82 128 C82 127.34 82 126.68 82 126 C83.1730315 124.9788076 84.39028853 124.00818725 85.625 123.0625 C93.28945296 116.52397553 98.23590363 106.12947449 99.18065071 96.07799721 C99.48617541 90.52140852 99.4665528 84.95785119 99.4765625 79.39453125 C99.49090652 77.58386599 99.50666951 75.77321148 99.52377319 73.96257019 C99.56544418 69.21241404 99.59054402 64.46232442 99.61126709 59.71203613 C99.64717964 52.12953952 99.7088295 44.54720886 99.76975632 36.96487999 C99.78854015 34.34245687 99.80049031 31.72007748 99.81118774 29.09761047 C99.86501356 19.35195812 100.24851512 9.71842564 101 0 C109.25 0 117.5 0 126 0 C126 50.16 126 100.32 126 152 C117.75 152 109.5 152 101 152 C100.505 141.605 100.505 141.605 100 131 C98.5459375 132.98 98.5459375 132.98 97.0625 135 C88.67813094 145.73402087 79.24807236 151.99673665 66 155 C62.05223941 155.42308305 58.15540372 155.47740071 54.1875 155.4375 C52.60364502 155.42614014 52.60364502 155.42614014 50.98779297 155.41455078 C37.29346302 155.12569425 25.5290942 151.19385671 15.25 141.8125 C-0.55428524 124.89261815 -0.29795149 101.64336907 -0.1953125 80.078125 C-0.19157676 77.7635714 -0.18873244 75.4490162 -0.18673706 73.13446045 C-0.17914478 67.07812034 -0.15953461 61.02187798 -0.1373291 54.96557617 C-0.11677524 48.77133506 -0.10771504 42.57707797 -0.09765625 36.3828125 C-0.07628415 24.25515874 -0.04113841 12.12760284 0 0 Z " fill="#0088D5" transform="translate(345,635)"/>
<path d="M0 0 C38.61 0 77.22 0 117 0 C117 10.12174818 117 10.12174818 114.5859375 13.0625 C113.81902588 14.03413086 113.81902588 14.03413086 113.03662109 15.02539062 C112.48828613 15.67701172 111.93995117 16.32863281 111.375 17 C110.26896318 18.38392411 109.16477984 19.76933164 108.0625 21.15625 C107.53140625 21.81367187 107.0003125 22.47109375 106.453125 23.1484375 C104.09759238 26.14984197 102.08397226 29.34845717 100.0859375 32.59375 C99.72757812 33.0578125 99.36921875 33.521875 99 34 C98.34 34 97.68 34 97 34 C96.690625 34.78375 96.38125 35.5675 96.0625 36.375 C95 39 95 39 94 41 C93.34 41 92.68 41 92 41 C91.72849121 41.7415332 91.45698242 42.48306641 91.17724609 43.24707031 C90.06142723 45.85635557 88.86653184 47.79265406 87.1640625 50.046875 C86.60066162 50.8004126 86.03726074 51.5539502 85.45678711 52.33032227 C84.85229736 53.12881592 84.24780762 53.92730957 83.625 54.75 C82.34624954 56.46118927 81.06893108 58.17344948 79.79296875 59.88671875 C78.83269775 61.17521729 78.83269775 61.17521729 77.85302734 62.48974609 C75.15760733 66.14117015 72.5410864 69.84528132 69.9375 73.5625 C63.71064416 82.4374518 57.36116801 91.22102933 51 100 C48.70718438 103.16583678 46.41580184 106.33270587 44.125 109.5 C43.61396729 110.20503662 43.10293457 110.91007324 42.57641602 111.63647461 C38.65871836 117.05291866 34.83487986 122.52160019 31 128 C59.05 128.33 87.1 128.66 116 129 C116 136.59 116 144.18 116 152 C74.75 152 33.5 152 -9 152 C-9 140.75180505 -9 140.75180505 -6.21875 137.25390625 C-5.62827881 136.48554443 -5.03780762 135.71718262 -4.42944336 134.92553711 C-3.79272705 134.14573486 -3.15601074 133.36593262 -2.5 132.5625 C-1.19914759 130.88807611 0.10163421 129.21359737 1.40234375 127.5390625 C2.02995605 126.74918945 2.65756836 125.95931641 3.30419922 125.14550781 C5.29574898 122.62582177 7.19164849 120.04780254 9.0625 117.4375 C9.66835937 116.6021875 10.27421875 115.766875 10.8984375 114.90625 C15.36664291 108.7271704 19.8316702 102.54580408 24.29443359 96.36279297 C25.95247129 94.06584353 27.61090336 91.76917954 29.26953125 89.47265625 C29.80304199 88.73394287 30.33655273 87.99522949 30.88623047 87.23413086 C31.96451484 85.74133505 33.04296613 84.24865979 34.12158203 82.75610352 C36.84725214 78.9838318 39.56950389 75.20917873 42.28515625 71.4296875 C47.4760122 64.21222747 52.70173699 57.02991842 58.0625 49.9375 C64.95849136 40.81210707 71.65463596 31.51804606 78 22 C76.64483025 22.00333092 76.64483025 22.00333092 75.26228333 22.00672913 C66.7431945 22.02677609 58.2241136 22.04199663 49.7050066 22.05181217 C45.32538152 22.05702808 40.94577596 22.0641023 36.56616211 22.07543945 C32.3386637 22.08631421 28.11118404 22.09228658 23.88367271 22.09487724 C22.27176302 22.09672321 20.65985435 22.10032792 19.04795265 22.10573006 C16.78821224 22.11300136 14.52854908 22.11398837 12.26879883 22.11352539 C10.34019768 22.11685631 10.34019768 22.11685631 8.37263489 22.12025452 C5 22 5 22 0 21 C0 14.07 0 7.14 0 0 Z " fill="#0088D6" transform="translate(202,635)"/>
<path d="M0 0 C0.78955078 -0.00773438 1.57910156 -0.01546875 2.39257812 -0.0234375 C3.16150391 -0.02085937 3.93042969 -0.01828125 4.72265625 -0.015625 C5.41238525 -0.01336914 6.10211426 -0.01111328 6.81274414 -0.00878906 C8.9375 0.25 8.9375 0.25 13.9375 2.25 C13.9375 10.83 13.9375 19.41 13.9375 28.25 C10.6375 27.26 7.3375 26.27 3.9375 25.25 C-7.00431226 24.04629221 -15.4373673 25.34989384 -24.0625 32.25 C-24.7225 32.25 -25.3825 32.25 -26.0625 32.25 C-26.45115234 33.03503906 -26.45115234 33.03503906 -26.84765625 33.8359375 C-27.77697206 35.6826165 -28.72597704 37.51939945 -29.68359375 39.3515625 C-35.96440578 51.53498712 -39.16852754 62.36071041 -39.26782227 76.12280273 C-39.28267166 77.41180733 -39.28267166 77.41180733 -39.29782104 78.72685242 C-39.32921649 81.5457389 -39.35410596 84.36464219 -39.37890625 87.18359375 C-39.39949477 89.1465751 -39.42049173 91.10955221 -39.44187927 93.07252502 C-39.49690395 98.22301787 -39.54639919 103.37354942 -39.59472656 108.52410889 C-39.64508527 113.78628966 -39.70069612 119.04841467 -39.75585938 124.31054688 C-39.86320095 134.62365021 -39.9646986 144.93680209 -40.0625 155.25 C-44.20831887 155.27886751 -48.35411216 155.29675327 -52.5 155.3125 C-53.68400391 155.32087891 -54.86800781 155.32925781 -56.08789062 155.33789062 C-57.21259766 155.34111328 -58.33730469 155.34433594 -59.49609375 155.34765625 C-61.05928345 155.35551147 -61.05928345 155.35551147 -62.65405273 155.36352539 C-65.0625 155.25 -65.0625 155.25 -66.0625 154.25 C-66.15914967 152.30105041 -66.18437121 150.34854545 -66.18275452 148.39720154 C-66.18412918 147.12528961 -66.18550385 145.85337769 -66.18692017 144.54292297 C-66.18338055 143.12033058 -66.17974573 141.69773842 -66.17602539 140.27514648 C-66.17574353 138.78733319 -66.17590124 137.29951976 -66.1764679 135.81170654 C-66.1767559 131.76023 -66.17085867 127.7087828 -66.16389394 123.65731311 C-66.15766092 119.42788003 -66.15705664 115.19844636 -66.15586853 110.9690094 C-66.15275506 102.95440278 -66.14454146 94.93980973 -66.13451904 86.92520911 C-66.12335839 77.80323316 -66.11784758 68.68125658 -66.11282361 59.55927551 C-66.10235886 40.78950909 -66.0845587 22.01975613 -66.0625 3.25 C-57.4825 3.25 -48.9025 3.25 -40.0625 3.25 C-39.7325 11.17 -39.4025 19.09 -39.0625 27.25 C-37.7425 24.61 -36.4225 21.97 -35.0625 19.25 C-33.37396852 17.05092042 -31.75822287 15.06652335 -29.875 13.0625 C-29.39522705 12.5463916 -28.9154541 12.0302832 -28.42114258 11.49853516 C-24.43304112 7.35407637 -20.39268315 4.38207326 -15.0625 2.25 C-14.17304687 1.88648438 -13.28359375 1.52296875 -12.3671875 1.1484375 C-8.16986457 0.00732134 -4.32699055 -0.04259548 0 0 Z " fill="#0088D5" transform="translate(584.0625,631.75)"/>
</svg>
