<?xml version="1.0" encoding="UTF-8"?>
<svg version="1.1" xmlns="http://www.w3.org/2000/svg" width="240" height="240">
<path d="M0 0 C79.2 0 158.4 0 240 0 C240 79.2 240 158.4 240 240 C160.8 240 81.6 240 0 240 C0 160.8 0 81.6 0 0 Z " fill="#FDFEFD" transform="translate(0,0)"/>
<path d="M0 0 C2.44041443 1.64657593 2.44041443 1.64657593 4.78295898 3.92724609 C5.64549286 4.75262878 6.50802673 5.57801147 7.396698 6.42840576 C8.68533249 7.70134491 8.68533249 7.70134491 10 9 C10.78456573 9.74920715 11.56913147 10.49841431 12.37747192 11.27032471 C17.43235795 16.1040466 22.39419223 21.03415597 27.36206055 25.95703125 C29.17230862 27.74551248 30.98880356 29.52769141 32.8112793 31.30371094 C35.46297073 33.88866478 38.09458685 36.49262254 40.72265625 39.1015625 C41.53920181 39.8902774 42.35574738 40.67899231 43.19703674 41.49160767 C49.37780124 47.69528406 49.37780124 47.69528406 50.09936523 51.87255859 C49.98473483 55.48045904 49.27564649 57.21865429 47 60 C46.34 60 45.68 60 45 60 C44.773125 60.556875 44.54625 61.11375 44.3125 61.6875 C42.63281165 64.6469509 40.45866715 66.66126784 38 69 C37.443125 69.598125 36.88625 70.19625 36.3125 70.8125 C35 72 35 72 33 72 C32.60035034 72.88860718 32.60035034 72.88860718 32.19262695 73.79516602 C30.97554782 76.04520525 29.73700372 77.49331612 27.91796875 79.27734375 C27.31533203 79.87353516 26.71269531 80.46972656 26.09179688 81.08398438 C25.14916992 82.00147461 25.14916992 82.00147461 24.1875 82.9375 C23.57068359 83.54529297 22.95386719 84.15308594 22.31835938 84.77929688 C21.10914044 85.9705253 19.89681464 87.15860954 18.68115234 88.34326172 C17.17374779 89.82877541 15.70337355 91.35164596 14.23828125 92.87890625 C12 95 12 95 9 96 C8.30251417 97.31747324 7.6389985 98.65318778 7 100 C4.05105 103.31376856 1.30737319 105.70650806 -3.0625 106.6875 C-9.09811653 105.2749089 -12.34168106 100.66751037 -16 96 C-16.99 95.34 -17.98 94.68 -19 94 C-19 93.34 -19 92.68 -19 92 C-19.57878906 91.76023437 -20.15757812 91.52046875 -20.75390625 91.2734375 C-23.44161051 89.74962604 -24.95529331 87.98794738 -26.9375 85.625 C-29.76210382 82.34447682 -32.57876445 79.66096098 -36 77 C-37.35386936 75.34997172 -38.68678142 73.6825613 -40 72 C-42.55195846 69.31372793 -45.1226507 66.9003463 -48 64.5625 C-55.56177402 58.10348469 -55.56177402 58.10348469 -56.625 53 C-55.74839754 48.79230817 -54.03068199 47.03068199 -51 44 C-50.34 44 -49.68 44 -49 44 C-48.67 43.01 -48.34 42.02 -48 41 C-47.34 41 -46.68 41 -46 41 C-45.67 40.01 -45.34 39.02 -45 38 C-44.34 38 -43.68 38 -43 38 C-42.67 37.01 -42.34 36.02 -42 35 C-41.34 35 -40.68 35 -40 35 C-39.67 34.01 -39.34 33.02 -39 32 C-38.34 32 -37.68 32 -37 32 C-36.67 31.01 -36.34 30.02 -36 29 C-35.34 29 -34.68 29 -34 29 C-33.67 28.01 -33.34 27.02 -33 26 C-32.34 26 -31.68 26 -31 26 C-31 25.34 -31 24.68 -31 24 C-29.125 21.875 -29.125 21.875 -27 20 C-26.34 20 -25.68 20 -25 20 C-24.67 19.01 -24.34 18.02 -24 17 C-23.34 17 -22.68 17 -22 17 C-21.505 15.515 -21.505 15.515 -21 14 C-20.34 14 -19.68 14 -19 14 C-18.67 13.01 -18.34 12.02 -18 11 C-17.34 11 -16.68 11 -16 11 C-15.67 10.01 -15.34 9.02 -15 8 C-14.34 8 -13.68 8 -13 8 C-13 7.34 -13 6.68 -13 6 C-11.6796875 4.4921875 -11.6796875 4.4921875 -9.875 2.875 C-9.29492188 2.33617188 -8.71484375 1.79734375 -8.1171875 1.2421875 C-5.19979262 -0.46949437 -3.34850174 -0.34164796 0 0 Z " fill="#03B04E" transform="translate(190,67)"/>
<path d="M0 0 C2.30859375 1.46875 2.30859375 1.46875 4.4375 3.5 C5.20835937 4.2321875 5.97921875 4.964375 6.7734375 5.71875 C9.38130003 8.3906653 11.84146882 11.15104393 14.2578125 13.99609375 C18.45977021 18.82928726 23.05449284 23.23800783 27.9375 27.375 C31.88270332 30.7654091 35.26371447 34.52944098 38.6796875 38.4453125 C41.70712778 41.77855482 44.99499628 44.79380863 48.34765625 47.796875 C50 50 50 50 50.5703125 52.8828125 C49.81196359 57.02776066 47.68868343 59.23774013 44.8125 62.125 C44.32974609 62.63675781 43.84699219 63.14851563 43.34960938 63.67578125 C40.4219854 66.73308522 37.31811201 69.36603479 34 72 C33.278125 72.9075 32.55625 73.815 31.8125 74.75 C31.214375 75.4925 30.61625 76.235 30 77 C29.34 77 28.68 77 28 77 C27.60035034 77.88860718 27.60035034 77.88860718 27.19262695 78.79516602 C25.97554782 81.04520525 24.73700372 82.49331612 22.91796875 84.27734375 C22.31533203 84.87353516 21.71269531 85.46972656 21.09179688 86.08398438 C20.14916992 87.00147461 20.14916992 87.00147461 19.1875 87.9375 C18.57068359 88.54529297 17.95386719 89.15308594 17.31835938 89.77929688 C16.10914044 90.9705253 14.89681464 92.15860954 13.68115234 93.34326172 C12.17374779 94.82877541 10.70337355 96.35164596 9.23828125 97.87890625 C7 100 7 100 4 101 C3.30062468 102.31647119 2.63270867 103.65022151 2 105 C-1.01778937 106.50889469 -2.62322637 106.50026276 -6 106 C-12.41512198 101.40200096 -17.90348417 95.24292483 -23.4609375 89.671875 C-24.33271637 88.80105286 -25.20449524 87.93023071 -26.10269165 87.03302002 C-27.930855 85.20553317 -29.75777219 83.37679894 -31.58349609 81.546875 C-34.38395675 78.74102601 -37.18975609 75.94059464 -39.99609375 73.140625 C-41.77636268 71.35969583 -43.55632168 69.57845679 -45.3359375 67.796875 C-46.59523575 66.5406131 -46.59523575 66.5406131 -47.87997437 65.25897217 C-48.65483185 64.48096252 -49.42968933 63.70295288 -50.22802734 62.90136719 C-50.91005219 62.21854675 -51.59207703 61.53572632 -52.29476929 60.83221436 C-54.68661377 58.26225607 -55.93635969 56.59821896 -56.3125 53.0625 C-55.96969488 49.70300985 -55.36499307 48.36499307 -53 46 C-52.34 46 -51.68 46 -51 46 C-50.67 45.01 -50.34 44.02 -50 43 C-49.34 43 -48.68 43 -48 43 C-47.67 42.01 -47.34 41.02 -47 40 C-46.34 40 -45.68 40 -45 40 C-44.67 39.01 -44.34 38.02 -44 37 C-43.34 37 -42.68 37 -42 37 C-41.67 36.01 -41.34 35.02 -41 34 C-40.34 34 -39.68 34 -39 34 C-38.67 33.01 -38.34 32.02 -38 31 C-37.34 31 -36.68 31 -36 31 C-36 30.34 -36 29.68 -36 29 C-34.125 26.875 -34.125 26.875 -32 25 C-31.34 25 -30.68 25 -30 25 C-29.67 24.01 -29.34 23.02 -29 22 C-28.34 22 -27.68 22 -27 22 C-26.67 21.01 -26.34 20.02 -26 19 C-25.34 19 -24.68 19 -24 19 C-23.505 17.515 -23.505 17.515 -23 16 C-22.34 16 -21.68 16 -21 16 C-20.67 15.01 -20.34 14.02 -20 13 C-19.34 13 -18.68 13 -18 13 C-17.67 12.01 -17.34 11.02 -17 10 C-16.34 10 -15.68 10 -15 10 C-14.67 9.01 -14.34 8.02 -14 7 C-13.34 7 -12.68 7 -12 7 C-12 6.34 -12 5.68 -12 5 C-7.93588136 0.93588136 -5.97474281 -0.71544691 0 0 Z " fill="#03B04E" transform="translate(123,134)"/>
<path d="M0 0 C2.44041443 1.64039612 2.44041443 1.64039612 4.78295898 3.91625977 C5.64549286 4.7415921 6.50802673 5.56692444 7.396698 6.41726685 C8.68533249 7.69571976 8.68533249 7.69571976 10 9 C10.78456573 9.7605368 11.56913147 10.52107361 12.37747192 11.30465698 C14.76190416 13.63098814 17.12008932 15.98131168 19.47265625 18.33984375 C20.32178085 19.18801163 21.17090546 20.0361795 22.04576111 20.91004944 C23.81908847 22.68270227 25.59117774 24.4565945 27.36206055 26.23168945 C30.08332642 28.95836784 32.80996305 31.67959503 35.53710938 34.40039062 C37.2659462 36.12988732 38.9944733 37.85969368 40.72265625 39.58984375 C41.53920181 40.40436508 42.35574738 41.21888641 43.19703674 42.05809021 C43.94549362 42.80969925 44.6939505 43.56130829 45.46508789 44.33569336 C46.45576012 45.32755898 46.45576012 45.32755898 47.46644592 46.33946228 C49.52742288 48.57109534 49.96921401 49.74938674 50.34341431 52.79556274 C49.89232277 57.00474829 48.46970693 58.29039814 45.50537109 61.27099609 C45.02733032 61.75955078 44.54928955 62.24810547 44.0567627 62.75146484 C42.47705381 64.35751853 40.87647854 65.94069671 39.2734375 67.5234375 C38.16591938 68.63499879 37.05929311 69.74744935 35.95352173 70.86074829 C33.63440741 73.18870166 31.3048055 75.50547469 28.96728516 77.81494141 C25.97403108 80.77401012 23.00852459 83.75920324 20.05035973 86.75330162 C17.77060864 89.05474964 15.47673941 91.34169563 13.1783638 93.62453079 C12.07915504 94.71974131 10.98437423 95.8194148 9.89417648 96.92359543 C8.36718182 98.46585642 6.82221813 99.98753205 5.27099609 101.50537109 C4.39607513 102.37551849 3.52115417 103.24566589 2.61972046 104.1421814 C-0.55325274 106.39234844 -2.18835022 106.56313279 -6 106 C-8.5 103.8125 -8.5 103.8125 -11 101 C-12.010625 100.175 -13.02125 99.35 -14.0625 98.5 C-16.79608408 96.17354547 -18.79688837 93.81086656 -21 91 C-21.99 90.34 -22.98 89.68 -24 89 C-24 88.34 -24 87.68 -24 87 C-24.57878906 86.76023437 -25.15757813 86.52046875 -25.75390625 86.2734375 C-28.44161051 84.74962604 -29.95529331 82.98794738 -31.9375 80.625 C-34.76210382 77.34447682 -37.57876445 74.66096098 -41 72 C-42.35386936 70.34997172 -43.68678142 68.6825613 -45 67 C-47.16050775 64.78263678 -49.31583763 62.59520509 -51.65234375 60.5625 C-54.32692232 58.1459396 -55.81639151 56.64969159 -56.8125 53.125 C-54.6843423 44.93977806 -45.24352806 38.09691409 -39.41796875 32.28515625 C-38.07488396 30.94063637 -38.07488396 30.94063637 -36.70466614 29.56895447 C-34.82589224 27.68950398 -32.94616009 25.81107813 -31.06469727 23.93432617 C-28.65258227 21.52795724 -26.24505193 19.11705876 -23.83878613 16.70484257 C-21.53426977 14.39585567 -19.2259604 12.09066856 -16.91796875 9.78515625 C-16.05342575 8.91858902 -15.18888275 8.05202179 -14.29814148 7.15919495 C-13.50003555 6.36424118 -12.70192963 5.56928741 -11.87963867 4.75024414 C-11.17683273 4.0482338 -10.47402679 3.34622345 -9.74992371 2.62294006 C-6.59433536 -0.30366224 -4.23492576 -0.40997995 0 0 Z " fill="#03B04E" transform="translate(123,0)"/>
<path d="M0 0 C1.73377457 1.59674084 3.38732057 3.28104084 5 5 C6.08638473 6.10497401 7.17642762 7.20635977 8.26953125 8.3046875 C8.84421143 8.88444336 9.4188916 9.46419922 10.01098633 10.06152344 C16.4757918 16.60376142 16.4757918 16.60376142 23.3125 22.75 C27.19410026 26.03443099 30.47454911 29.76811059 33.8359375 33.57421875 C37.75027459 37.9619504 41.81993827 42.09054932 46.375 45.8125 C49.38211355 48.31842796 49.8748807 48.98146685 50.34341431 52.79556274 C49.89232277 57.00474829 48.46970693 58.29039814 45.50537109 61.27099609 C45.02733032 61.75955078 44.54928955 62.24810547 44.0567627 62.75146484 C42.47705381 64.35751853 40.87647854 65.94069671 39.2734375 67.5234375 C38.16591938 68.63499879 37.05929311 69.74744935 35.95352173 70.86074829 C33.63440741 73.18870166 31.3048055 75.50547469 28.96728516 77.81494141 C25.97403108 80.77401012 23.00852459 83.75920324 20.05035973 86.75330162 C17.77060864 89.05474964 15.47673941 91.34169563 13.1783638 93.62453079 C12.07915504 94.71974131 10.98437423 95.8194148 9.89417648 96.92359543 C8.36718182 98.46585642 6.82221813 99.98753205 5.27099609 101.50537109 C4.39607513 102.37551849 3.52115417 103.24566589 2.61972046 104.1421814 C-0.58165419 106.4124898 -2.15339844 106.61294133 -6 106 C-8.00332642 104.79669189 -8.00332642 104.79669189 -9.78369141 103.08300781 C-10.46361145 102.44028931 -11.14353149 101.7975708 -11.84405518 101.13537598 C-12.55551697 100.4307019 -13.26697876 99.72602783 -14 99 C-14.73611511 98.28791382 -15.47223022 97.57582764 -16.23065186 96.84216309 C-18.66071817 94.47141975 -21.06329102 92.0753874 -23.4609375 89.671875 C-24.33271637 88.80105286 -25.20449524 87.93023071 -26.10269165 87.03302002 C-27.930855 85.20553317 -29.75777219 83.37679894 -31.58349609 81.546875 C-34.38395675 78.74102601 -37.18975609 75.94059464 -39.99609375 73.140625 C-41.77636268 71.35969583 -43.55632168 69.57845679 -45.3359375 67.796875 C-46.59523575 66.5406131 -46.59523575 66.5406131 -47.87997437 65.25897217 C-48.65483185 64.48096252 -49.42968933 63.70295288 -50.22802734 62.90136719 C-50.91005219 62.21854675 -51.59207703 61.53572632 -52.29476929 60.83221436 C-54.53438657 58.42581919 -55.88375289 56.55540287 -56.5625 53.3125 C-55.16524013 45.0841919 -45.12377382 37.97744356 -39.41796875 32.28515625 C-38.07488396 30.94063637 -38.07488396 30.94063637 -36.70466614 29.56895447 C-34.82589224 27.68950398 -32.94616009 25.81107813 -31.06469727 23.93432617 C-28.65258227 21.52795724 -26.24505193 19.11705876 -23.83878613 16.70484257 C-21.53426977 14.39585567 -19.2259604 12.09066856 -16.91796875 9.78515625 C-16.05342575 8.91858902 -15.18888275 8.05202179 -14.29814148 7.15919495 C-13.50003555 6.36424118 -12.70192963 5.56928741 -11.87963867 4.75024414 C-11.17683273 4.0482338 -10.47402679 3.34622345 -9.74992371 2.62294006 C-6.60159933 -0.29692538 -4.23024221 -0.49767555 0 0 Z " fill="#02B04E" transform="translate(56,67)"/>
<path d="M0 0 C0 3.63898996 -0.66329035 4.0879168 -3.0625 6.6875 C-4.02542969 7.74324219 -4.02542969 7.74324219 -5.0078125 8.8203125 C-5.66523438 9.53960937 -6.32265625 10.25890625 -7 11 C-8.14721642 12.35299515 -9.29308577 13.70713383 -10.4375 15.0625 C-13.38928681 18.44544668 -16.56595647 21.38398435 -20.0078125 24.26171875 C-22.4569663 26.3987255 -24.71574331 28.68792892 -27 31 C-27.81339844 31.80179688 -28.62679687 32.60359375 -29.46484375 33.4296875 C-34.20976668 38.12213893 -38.74951654 42.85467791 -43 48 C-43.99 47.34 -44.98 46.68 -46 46 C-30.82 30.82 -15.64 15.64 0 0 Z " fill="#D2F0DF" transform="translate(172,56)"/>
<path d="M0 0 C0.495 1.98 0.495 1.98 1 4 C0.53851563 4.38929688 0.07703125 4.77859375 -0.3984375 5.1796875 C-7.41791244 11.20034387 -14.22338937 17.55104149 -20.125 24.6875 C-22.79544425 27.89955548 -25.79913308 30.53760201 -28.984375 33.23046875 C-31.0013686 35.00120151 -32.83721045 36.86969598 -34.6875 38.8125 C-37.25198617 41.43580466 -39.38368285 43.01373169 -43 44 C-38.37508621 38.44560076 -33.44639036 33.31474331 -28.3203125 28.22265625 C-27.50754852 27.41130722 -26.69478455 26.59995819 -25.85739136 25.76402283 C-23.28228262 23.1944741 -20.7037038 20.62844032 -18.125 18.0625 C-16.36956054 16.31208071 -14.61434983 14.561432 -12.859375 12.81054688 C-8.57555918 8.53770698 -4.28889528 4.26774101 0 0 Z " fill="#CFEFDC" transform="translate(104,124)"/>
<path d="M0 0 C0.66 0 1.32 0 2 0 C0.41636918 3.83605489 -2.02614122 6.28445649 -4.9375 9.203125 C-5.41823975 9.6857782 -5.89897949 10.1684314 -6.39428711 10.66571045 C-7.40721093 11.67999064 -8.42264638 12.69176804 -9.44042969 13.70117188 C-11.00173165 15.25171972 -12.55202497 16.81270503 -14.1015625 18.375 C-15.08790061 19.36001734 -16.0748585 20.34441453 -17.0625 21.328125 C-17.96097656 22.2243457 -18.85945312 23.12056641 -19.78515625 24.04394531 C-22 26 -22 26 -24 26 C-24 24 -24 24 -22.125 21.9375 C-19.54275953 19.45035621 -16.86048038 17.07629603 -14.1875 14.6875 C-6.15991176 8.11575418 -6.15991176 8.11575418 0 0 Z " fill="#E8F6EE" transform="translate(223,139)"/>
<path d="M0 0 C0 4.91075921 -3.69530187 7.60955122 -7 11 C-8.94602014 12.76450416 -10.92714711 14.3821636 -13 16 C-13.66 15.67 -14.32 15.34 -15 15 C-10.05 10.05 -5.1 5.1 0 0 Z " fill="#CAEDD8" transform="translate(172,56)"/>
<path d="M0 0 C0.77734375 1.703125 0.77734375 1.703125 1 4 C-0.87109375 6.359375 -0.87109375 6.359375 -3.4375 8.75 C-4.70400391 9.94882813 -4.70400391 9.94882813 -5.99609375 11.171875 C-6.65738281 11.77515625 -7.31867188 12.3784375 -8 13 C-8.99 12.67 -9.98 12.34 -11 12 C-9.47005208 10.76302083 -7.94010417 9.52604167 -6.41015625 8.2890625 C-4.86733563 7.0333609 -4.86733563 7.0333609 -4 5 C-3.34 5 -2.68 5 -2 5 C-1.34 3.35 -0.68 1.7 0 0 Z " fill="#D4F0E0" transform="translate(239,122)"/>
<path d="M0 0 C0.99 0.33 1.98 0.66 3 1 C1.35 2.65 -0.3 4.3 -2 6 C-2.33 5.01 -2.66 4.02 -3 3 C-2.01 2.01 -1.02 1.02 0 0 Z " fill="#E1F4E9" transform="translate(84,144)"/>
<path d="M0 0 C0.33 1.32 0.66 2.64 1 4 C-0.98 5.32 -2.96 6.64 -5 8 C-5.66 7.67 -6.32 7.34 -7 7 C-4.69 4.69 -2.38 2.38 0 0 Z " fill="#C7ECD6" transform="translate(104,124)"/>
<path d="M0 0 C0.99 0.33 1.98 0.66 3 1 C1.35 2.65 -0.3 4.3 -2 6 C-2.33 5.01 -2.66 4.02 -3 3 C-2.01 2.01 -1.02 1.02 0 0 Z " fill="#E1F4E9" transform="translate(156,72)"/>
<path d="M0 0 C0.33 0.66 0.66 1.32 1 2 C-1.47812494 5.45167403 -2.79606135 7.23163306 -7 8 C-6.02133662 6.85373678 -5.04205413 5.70800212 -4.0625 4.5625 C-3.51722656 3.92441406 -2.97195312 3.28632813 -2.41015625 2.62890625 C-1.63204305 1.73008851 -0.84063472 0.84063472 0 0 Z " fill="#C4EBD4" transform="translate(80,148)"/>
<path d="M0 0 C0.33 0.66 0.66 1.32 1 2 C-1.47812494 5.45167403 -2.79606135 7.23163306 -7 8 C-6.02133662 6.85373678 -5.04205413 5.70800212 -4.0625 4.5625 C-3.51722656 3.92441406 -2.97195312 3.28632812 -2.41015625 2.62890625 C-1.63204305 1.73008851 -0.84063472 0.84063472 0 0 Z " fill="#C4EBD4" transform="translate(152,76)"/>
<path d="M0 0 C0.886875 0.103125 1.77375 0.20625 2.6875 0.3125 C2.6875 0.6425 2.6875 0.9725 2.6875 1.3125 C1.759375 1.580625 0.83125 1.84875 -0.125 2.125 C-3.07490366 3.22398371 -4.36865186 3.93668561 -6.3125 6.3125 C-6.9725 5.9825 -7.6325 5.6525 -8.3125 5.3125 C-4.12788462 0.38942308 -4.12788462 0.38942308 0 0 Z " fill="#27BB66" transform="translate(187.3125,66.6875)"/>
</svg>
