<svg xmlns="http://www.w3.org/2000/svg" viewBox="0 0 96 96">
  <!-- Microsoft Azure logo - official geometric shape -->
  <path d="M33.337 6.107L16.181 55.773l-14.07.058L33.337 6.107z" fill="#0078D4"/>
  <path d="M33.337 6.107L16.181 55.773l-14.07.058L33.337 6.107z" fill="#0078D4"/>
  <path d="M55.837 51.4L38.5 55.831 16.181 55.773 33.337 6.107h20.425L55.837 51.4z" fill="#0078D4"/>
  <path d="M53.762 6.107L38.5 55.831l35.508-.058L93.888 89.893H62.449L38.5 55.831l-22.319-.058L33.337 6.107h20.425z" fill="#0078D4"/>
  <path d="M38.5 55.831L62.449 89.893H2.112L38.5 55.831z" fill="#50E6FF"/>
  <path d="M53.762 6.107L38.5 55.831l35.508-.058L53.762 6.107z" fill="#50E6FF" opacity=".7"/>
  <path d="M62.449 89.893H93.888L74.008 55.773l-35.508.058L62.449 89.893z" fill="#0078D4"/>
</svg>
