<svg xmlns="http://www.w3.org/2000/svg" viewBox="0 0 64 64">
  <!-- Google Cloud Platform logo -->
  <path d="M40.33 23.22h2.12l6.06-6.06.3-2.57A26.63 26.63 0 0 0 5.45 25.12a3.31 3.31 0 0 1 2.16-.41l12.12-2s.62-.99.93-1a14.48 14.48 0 0 1 19.67 1.51z" fill="#EA4335"/>
  <path d="M54.94 25.12a26.72 26.72 0 0 0-8.07-13.01l-8.66 8.66a14.48 14.48 0 0 1 5.32 11.49v1.44A7.26 7.26 0 0 1 43.53 41a7.26 7.26 0 0 1-7.26-7.26v-1.48L24.15 44.38A14.48 14.48 0 0 0 43.53 53.7h.06a14.48 14.48 0 0 0 11.35-28.58z" fill="#4285F4"/>
  <path d="M21.93 53.7h14.34V41.58h-14.34a7.18 7.18 0 0 1-3-0.66l-2.08.64-6.1 6.06-.52 2a14.38 14.38 0 0 0 11.7 4.08z" fill="#34A853"/>
  <path d="M21.93 24.84A14.48 14.48 0 0 0 10.23 49.62l8.7-8.7A7.26 7.26 0 1 1 29.19 31.5l8.7-8.7a14.48 14.48 0 0 0-15.96 2.04z" fill="#FBBC05"/>
</svg>
